<svg xmlns="http://www.w3.org/2000/svg" width="512" height="512" x="0" y="0" viewBox="0 0 44 60" style="enable-background:new 0 0 512 512" xml:space="preserve" class="">
    <g><g fill="none" fill-rule="evenodd"><path fill="#ffeb3a" d="M40 48.23c0 7.65-11.02 7.96-17.22 10.61a2.01 2.01 0 0 1-1.56 0C15.02 56.19 4 55.88 4 48.23 4 43.1 6.93 40.91 7.78 36h28.45c.84 4.91 3.77 7.1 3.77 12.23z" opacity="1" data-original="#ffeb3a"></path><path fill="#fdd834" d="M36.23 36h-3c.84 4.91 3.77 7.1 3.77 12.23 0 7.363-10.206 7.927-16.5 10.322.246.093.487.188.72.288a2.01 2.01 0 0 0 1.56 0C28.98 56.19 40 55.88 40 48.23c0-5.13-2.93-7.32-3.77-12.23z" opacity="1" data-original="#fdd834"></path><path fill="#ffdc00" d="M42.36 20.91C40.01 23.38 36 28.32 36 33.27c-.006.915.07 1.829.23 2.73H7.78c.15-.902.224-1.815.22-2.73 0-4.95-4.01-9.89-6.36-12.36a2.376 2.376 0 0 1 .06-3.31l.92-.91a2.387 2.387 0 0 1 2.91-.35 19.6 19.6 0 0 0 2.16 1.08 33.317 33.317 0 0 0 9.24 2.3A44 44 0 0 0 22 20a44 44 0 0 0 5.07-.28 33.317 33.317 0 0 0 9.24-2.3 19.6 19.6 0 0 0 2.16-1.08 2.387 2.387 0 0 1 2.91.35l.92.91c.912.906.938 2.372.06 3.31z" opacity="1" data-original="#ffdc00" class=""></path><path fill="#fec108" d="m42.3 17.6-.92-.91a2.387 2.387 0 0 0-2.91-.35c-.094.055-.2.113-.3.171a2.4 2.4 0 0 1 .213.179l.92.91c.912.906.938 2.372.06 3.31C37.01 23.38 33 28.32 33 33.27c-.006.915.07 1.829.23 2.73h3a15.12 15.12 0 0 1-.23-2.73c0-4.95 4.01-9.89 6.36-12.36a2.376 2.376 0 0 0-.06-3.31z" opacity="1" data-original="#fec108"></path><path fill="#f5f5f5" d="M22 53a23 23 0 0 1-10.3-2.33 1.32 1.32 0 0 1-.49-1.893l1.415-2.184a1.247 1.247 0 0 1 1.58-.471 17.088 17.088 0 0 0 15.584 0 1.257 1.257 0 0 1 1.594.479l1.4 2.181a1.321 1.321 0 0 1-.493 1.89A23.005 23.005 0 0 1 22 53z" opacity="1" data-original="#f5f5f5"></path><g fill="#ff9801" transform="translate(0 -1)"><circle cx="22" cy="43" r="2" fill="#ff9801" opacity="1" data-original="#ff9801"></circle><path d="M16.93 20.72a33.317 33.317 0 0 1-9.24-2.3 16.8 16.8 0 0 1 5.07-2.33 3 3 0 0 1 3.5 1.84c.351.894.577 1.833.67 2.79zM36.31 18.42a33.317 33.317 0 0 1-9.24 2.3c.093-.957.319-1.896.67-2.79a3 3 0 0 1 3.5-1.84 16.8 16.8 0 0 1 5.07 2.33z" fill="#ff9801" opacity="1" data-original="#ff9801"></path></g><path fill="#ffeb3a" d="M38.47 16.34a19.6 19.6 0 0 1-2.16 1.08 16.8 16.8 0 0 0-5.07-2.33 3 3 0 0 0-3.5 1.84 10.379 10.379 0 0 0-.67 2.79A44 44 0 0 1 22 20a44 44 0 0 1-5.07-.28 10.379 10.379 0 0 0-.67-2.79 3 3 0 0 0-3.5-1.84 16.8 16.8 0 0 0-5.07 2.33 19.6 19.6 0 0 1-2.16-1.08C6.45 14.35 9.14 10 14 10a6.96 6.96 0 0 1 5.02 1.83.58.58 0 0 0 .98-.42V8.46a3.893 3.893 0 0 1-1.67-1.89l-1.9-.91a.723.723 0 0 1 0-1.32l1.9-.91A4 4 0 1 1 24 8.46v2.95a.58.58 0 0 0 .98.42A6.96 6.96 0 0 1 30 10c4.86 0 7.55 4.35 8.47 6.34z" opacity="1" data-original="#ffeb3a"></path><path fill="#fdd834" d="M30 10a9.017 9.017 0 0 0-1.593.138c3.975.731 6.236 4.414 7.063 6.2-.15.088-.313.179-.485.273.535.3.99.582 1.325.807a19.6 19.6 0 0 0 2.16-1.08C37.55 14.35 34.86 10 30 10z" opacity="1" data-original="#fdd834"></path><g fill="#000"><path d="M18 23h-4a1 1 0 0 0-1 1v8a1 1 0 0 0 2 0v-3h2a1 1 0 0 0 0-2h-2v-2h3a1 1 0 0 0 0-2zM29 23a1 1 0 0 0-1 1v8a1 1 0 0 0 2 0v-8a1 1 0 0 0-1-1z" fill="#000000" opacity="1" data-original="#000000"></path><g fill-rule="nonzero"><path d="M23 23h-2a1 1 0 0 0-1 1v8a1 1 0 0 0 1 1h2a2.987 2.987 0 0 0 2.22-5A2.987 2.987 0 0 0 23 23zm-1 2h1a1 1 0 0 1 0 2h-1zm1 6h-1v-2h1a1 1 0 0 1 0 2zM32.229 46.057a2.261 2.261 0 0 0-2.866-.841 16.092 16.092 0 0 1-14.723 0 2.257 2.257 0 0 0-2.849.83l-1.416 2.185a2.345 2.345 0 0 0-.294 1.881 2.3 2.3 0 0 0 1.173 1.448A24.082 24.082 0 0 0 22 54c3.724.03 7.404-.806 10.75-2.44a2.294 2.294 0 0 0 1.171-1.445 2.341 2.341 0 0 0-.289-1.878zm-.238 3.534a.278.278 0 0 1-.145.184A22.018 22.018 0 0 1 22 52a22.05 22.05 0 0 1-9.843-2.222.28.28 0 0 1-.145-.185.334.334 0 0 1 .042-.272l1.415-2.184a.272.272 0 0 1 .222-.137.21.21 0 0 1 .089.02A18.758 18.758 0 0 0 22 49a18.749 18.749 0 0 0 8.225-1.979.262.262 0 0 1 .322.117l1.4 2.181c.054.08.07.18.044.272z" fill="#000000" opacity="1" data-original="#000000"></path><path d="M22 45a3 3 0 1 0 0-6 3 3 0 0 0 0 6zm0-4a1 1 0 1 1 0 2 1 1 0 0 1 0-2z" fill="#000000" opacity="1" data-original="#000000"></path><path d="M14 9c-4.966 0-7.8 3.97-8.956 6.088a3.371 3.371 0 0 0-3.129.892L1 16.9a3.389 3.389 0 0 0-.078 4.7C3.189 23.99 7 28.683 7 33.267a16.13 16.13 0 0 1-2.02 7.672A15.832 15.832 0 0 0 3 48.229c0 6.416 6.591 8.219 12.406 9.81a43.9 43.9 0 0 1 5.422 1.722 3 3 0 0 0 2.345 0 43.9 43.9 0 0 1 5.427-1.722c5.81-1.591 12.4-3.394 12.4-9.81a15.832 15.832 0 0 0-1.98-7.29A16.13 16.13 0 0 1 37 33.267c0-4.584 3.81-9.277 6.08-11.666A3.389 3.389 0 0 0 43 16.9l-.917-.915a3.376 3.376 0 0 0-3.13-.893C37.8 12.969 34.966 9 30 9a8.209 8.209 0 0 0-5 1.509V9a5 5 0 1 0-7.424-6.315L16 3.437a1.723 1.723 0 0 0 0 3.125l1.577.755A4.936 4.936 0 0 0 19 9v1.512A8.207 8.207 0 0 0 14 9zm14.067 47.11a45.3 45.3 0 0 0-5.678 1.811.991.991 0 0 1-.778 0 45.353 45.353 0 0 0-5.678-1.811C10.31 54.572 5 53.119 5 48.229a14 14 0 0 1 1.788-6.435A22.583 22.583 0 0 0 8.588 37h26.824a22.583 22.583 0 0 0 1.8 4.794A14 14 0 0 1 39 48.229c0 4.89-5.31 6.343-10.933 7.881zM40.673 17.4l.918.916c.525.522.543 1.367.041 1.911C39.155 22.829 35 27.988 35 33.267c0 .615.039 1.184.093 1.733H8.906a17.47 17.47 0 0 0 .093-1.733c0-5.279-4.154-10.438-6.631-13.044a1.378 1.378 0 0 1 .041-1.911l.919-.916a1.393 1.393 0 0 1 1.7-.2C6.963 18.343 12.5 21 22 21s15.037-2.656 16.978-3.8a1.4 1.4 0 0 1 1.695.2zm-30.663-.186c.948-.5 1.952-.886 2.99-1.153a1.992 1.992 0 0 1 2.329 1.239c.16.41.292.83.394 1.258a33.6 33.6 0 0 1-5.713-1.344zm18.267 1.339c.101-.426.232-.844.391-1.251A2 2 0 0 1 31 16.061c1.037.267 2.04.654 2.987 1.153a33.6 33.6 0 0 1-5.71 1.339zm-8.24-5.689c.585-.25.964-.824.963-1.459V8.46a1 1 0 0 0-.5-.868 2.87 2.87 0 0 1-1.242-1.4 1 1 0 0 0-.493-.52L17.366 5l1.4-.668a1 1 0 0 0 .49-.515A2.968 2.968 0 0 1 22 2a3 3 0 0 1 1.5 5.593 1 1 0 0 0-.5.867v2.945a1.58 1.58 0 0 0 2.668 1.15A5.962 5.962 0 0 1 30 11c3.837 0 6.133 3.133 7.133 4.925-.218.11-.468.229-.745.355-1.514-.97-3.17-1.7-4.907-2.161a3.977 3.977 0 0 0-4.671 2.446c-.275.722-.476 1.47-.6 2.232a44.6 44.6 0 0 1-8.428 0 11.514 11.514 0 0 0-.6-2.239 3.977 3.977 0 0 0-4.666-2.439 17.33 17.33 0 0 0-4.91 2.161 20.699 20.699 0 0 1-.745-.355C7.867 14.133 10.163 11 14 11a5.962 5.962 0 0 1 4.331 1.554c.454.438 1.127.56 1.706.31z" fill="#000000" opacity="1" data-original="#000000"></path></g></g></g></g></svg>
