<svg xmlns="http://www.w3.org/2000/svg" version="1.1" xmlns:xlink="http://www.w3.org/1999/xlink" width="512" height="512" x="0" y="0" viewBox="0 0 50 50" style="enable-background:new 0 0 512 512" xml:space="preserve" class=""><g><path fill="#eabe06" d="M1 26.8V6c0-1.2.9-2.1 2.1-2.1h43.8c1.2 0 2.1.9 2.1 2.1v20.8c0 1.2-.9 2.1-2.1 2.1-1.2 0-2.1.9-2.1 2.1v.1c0 1.2-.9 2.1-2.1 2.1H28.1c-1.2 0-2.1-.9-2.1-2.1V31c0-1.2-.9-2.1-2.1-2.1H3c-1.1 0-2-1-2-2.1z" opacity="1" data-original="#eabe06" class=""></path><path fill="#f4f4f4" d="M3.8 27.5V9.1c0-1 .8-1.8 1.8-1.8h38.7c1 0 1.8.8 1.8 1.8v18.4c0 1-.8 1.8-1.8 1.8s-1.8.8-1.8 1.8v.1c0 1-.8 1.8-1.8 1.8H27.8c-1 0-1.8-.8-1.8-1.8v-.1c0-1-.8-1.8-1.8-1.8H5.7c-1.1 0-1.9-.8-1.9-1.8z" opacity="1" data-original="#f4f4f4"></path><path fill="#e5e5e5" d="M3.8 30.4V12c0-1 .8-1.8 1.8-1.8h38.7c1 0 1.8.8 1.8 1.8v18.4c0 1-.8 1.8-1.8 1.8s-1.8.8-1.8 1.8v.1c0 1-.8 1.8-1.8 1.8H27.8c-1 0-1.8-.8-1.8-1.8V34c0-1-.8-1.8-1.8-1.8H5.7c-1.1 0-1.9-.8-1.9-1.8z" opacity="1" data-original="#e5e5e5"></path><path fill="#ffd731" d="M49 19.3V44c0 1.2-.9 2.1-2.1 2.1H3.1C1.9 46.1 1 45.2 1 44V19.3c0-1.2.9-2.1 2.1-2.1 1.2 0 2.1-.9 2.1-2.1V15c0-1.2.9-2.1 2.1-2.1h14.6c1.2 0 2.1.9 2.1 2.1v.1c0 1.2.9 2.1 2.1 2.1H47c1.1 0 2 1 2 2.1z" opacity="1" data-original="#ffd731" class=""></path><path fill="#fa4968" d="M35.5 39.5c-1.8-1.4-5.2-1.9-5.9-3.9-.6-2 1.8-3.6 1.4-5.9-.2-1.1-1.6-3.1-1.6-3.1l.9-1.4c2.3.6 4 .3 5.1-.8 1.1 1.1 2.8 1.4 5.1.8l.9 1.4s-1.4 1.9-1.6 3.1c-.3 2.3 2.1 3.9 1.4 5.9-.4 2.1-3.9 2.5-5.7 3.9z" opacity="1" data-original="#fa4968" class=""></path><path fill="#eabe06" d="M19.5 37.6H4.6c-.3 0-.5-.2-.5-.5s.2-.5.5-.5h14.9c.3 0 .5.2.5.5s-.2.5-.5.5zM19.5 40H4.6c-.3 0-.5-.2-.5-.5s.2-.5.5-.5h14.9c.3 0 .5.2.5.5s-.2.5-.5.5zM12.9 42.4H4.6c-.3 0-.5-.2-.5-.5s.2-.5.5-.5h8.2c.3 0 .5.2.5.5s-.2.5-.4.5z" opacity="1" data-original="#eabe06" class=""></path><path fill="#ffffff" d="m35.5 28.6.8 1.4 1.6.3-1.2 1.1.3 1.7-1.5-.8-1.4.8.3-1.7-1.2-1.1 1.6-.3z" opacity="1" data-original="#ffffff" class=""></path><g opacity=".25"><path fill="#ffffff" d="M6.3 4.8h4.5v1H6.3zM11.9 4.8h1.5v1h-1.5z" opacity="1" data-original="#ffffff" class=""></path></g><g opacity=".25"><path fill="#ffffff" d="M34.6 18.8h4.2v1h-4.2zM39.9 18.8h1.4v1h-1.4z" opacity="1" data-original="#ffffff" class=""></path></g></g></svg>