<svg xmlns="http://www.w3.org/2000/svg" version="1.1" width="512"
     height="512" x="0" y="0" viewBox="0 0 42 58" style="enable-background:new 0 0 512 512" xml:space="preserve"
     class=""><g><g fill="none" fill-rule="evenodd"><path fill="#f0c419" d="M37.47 15.34C34.99 16.8 29.5 19 21 19S7.01 16.8 4.53 15.34C5.45 13.35 8.14 9 13 9a6.96 6.96 0 0 1 5.02 1.83.58.58 0 0 0 .98-.42V7.46a3.893 3.893 0 0 1-1.67-1.89l-1.9-.91a.723.723 0 0 1 0-1.32l1.9-.91A4 4 0 1 1 23 7.46v2.95a.58.58 0 0 0 .98.42A6.96 6.96 0 0 1 29 9c4.86 0 7.55 4.35 8.47 6.34z" opacity="1" data-original="#f0c419" class=""></path><path
  fill="#f3d55b"
  d="M41.36 19.91C39.01 22.38 35 27.32 35 32.27c-.006.915.07 1.829.23 2.73H6.78c.15-.902.224-1.815.22-2.73 0-4.95-4.01-9.89-6.36-12.36A2.376 2.376 0 0 1 .7 16.6l.92-.91a2.387 2.387 0 0 1 2.91-.35 19.6 19.6 0 0 0 2.16 1.08 33.317 33.317 0 0 0 9.24 2.3A44 44 0 0 0 21 19a44 44 0 0 0 5.07-.28 33.317 33.317 0 0 0 9.24-2.3 19.6 19.6 0 0 0 2.16-1.08 2.387 2.387 0 0 1 2.91.35l.92.91c.912.906.938 2.372.06 3.31z"
  opacity="1" data-original="#f3d55b"></path><path fill="#f0c419"
                                                   d="M39 47.23c0 7.65-11.02 7.96-17.22 10.61a2.01 2.01 0 0 1-1.56 0C14.02 55.19 3 54.88 3 47.23 3 42.1 5.93 39.91 6.78 35h28.45c.84 4.91 3.77 7.1 3.77 12.23z"
                                                   opacity="1" data-original="#f0c419" class=""></path><g
  fill="#e57e25"><path d="M17 22h-4a1 1 0 0 0-1 1v8a1 1 0 0 0 2 0v-3h2a1 1 0 0 0 0-2h-2v-2h3a1 1 0 0 0 0-2zM28 22a1 1 0 0 0-1 1v8a1 1 0 0 0 2 0v-8a1 1 0 0 0-1-1z" fill="#e57e25" opacity="1" data-original="#e57e25"></path>
  <path fill-rule="nonzero"
        d="M22 22h-2a1 1 0 0 0-1 1v8a1 1 0 0 0 1 1h2a2.987 2.987 0 0 0 2.22-5A2.987 2.987 0 0 0 22 22zm-1 2h1a1 1 0 0 1 0 2h-1zm1 6h-1v-2h1a1 1 0 0 1 0 2z"
        fill="#e57e25" opacity="1" data-original="#e57e25"></path></g><g fill="#f29c1f" transform="translate(-1 -1)"><path d="M22 53a23 23 0 0 1-10.3-2.33 1.32 1.32 0 0 1-.49-1.893l1.415-2.184a1.247 1.247 0 0 1 1.58-.471 17.088 17.088 0 0 0 15.584 0 1.257 1.257 0 0 1 1.594.479l1.4 2.181a1.321 1.321 0 0 1-.493 1.89A23.005 23.005 0 0 1 22 53z" fill="#f29c1f" opacity="1" data-original="#f29c1f"></path>
  <circle cx="22" cy="42" r="2" fill="#f29c1f" opacity="1" data-original="#f29c1f"></circle>
  <path
    d="M16.93 19.72a33.317 33.317 0 0 1-9.24-2.3 16.8 16.8 0 0 1 5.07-2.33 3 3 0 0 1 3.5 1.84c.351.894.577 1.833.67 2.79zM36.31 17.42a33.317 33.317 0 0 1-9.24 2.3c.093-.957.319-1.896.67-2.79a3 3 0 0 1 3.5-1.84 16.8 16.8 0 0 1 5.07 2.33z"
    fill="#f29c1f" opacity="1" data-original="#f29c1f"></path></g></g></g></svg>
