<svg xmlns="http://www.w3.org/2000/svg" version="1.1" xmlns:xlink="http://www.w3.org/1999/xlink" width="512" height="512" x="0" y="0" viewBox="0 0 50 50" style="enable-background:new 0 0 512 512" xml:space="preserve" class=""><g transform="matrix(1.0000000000000004,0,0,1.0000000000000004,-1.1368683772161603e-13,5.684341886080802e-14)"><path fill="#eabe06" d="M1 26.8V6c0-1.2.9-2.1 2.1-2.1h43.8c1.2 0 2.1.9 2.1 2.1v20.8c0 1.2-.9 2.1-2.1 2.1-1.2 0-2.1.9-2.1 2.1v.1c0 1.2-.9 2.1-2.1 2.1H28.1c-1.2 0-2.1-.9-2.1-2.1V31c0-1.2-.9-2.1-2.1-2.1H3c-1.1 0-2-1-2-2.1z" opacity="1" data-original="#eabe06" class=""></path><path fill="#682f2a" d="M42.7 33.7H28.2c-1.4 0-2.6-1.2-2.6-2.6V31c0-.9-.7-1.6-1.6-1.6H3.1c-1.4 0-2.6-1.2-2.6-2.6V6c0-1.4 1.2-2.6 2.6-2.6h43.8c1.4 0 2.6 1.2 2.6 2.6v20.8c0 1.4-1.2 2.6-2.6 2.6-.9 0-1.6.7-1.6 1.6v.1c0 1.4-1.1 2.6-2.6 2.6zM3.1 4.4c-.9 0-1.6.7-1.6 1.6v20.8c0 .9.7 1.6 1.6 1.6H24c1.4 0 2.6 1.2 2.6 2.6v.1c0 .9.7 1.6 1.6 1.6h14.6c.9 0 1.6-.7 1.6-1.6V31c0-1.4 1.2-2.6 2.6-2.6.9 0 1.6-.7 1.6-1.6V6c0-.9-.7-1.6-1.6-1.6z" opacity="1" data-original="#682f2a" class=""></path><path fill="#f4f4f4" d="M3.8 27.5V9.1c0-1 .8-1.8 1.8-1.8h38.7c1 0 1.8.8 1.8 1.8v18.4c0 1-.8 1.8-1.8 1.8s-1.8.8-1.8 1.8v.1c0 1-.8 1.8-1.8 1.8H27.8c-1 0-1.8-.8-1.8-1.8v-.1c0-1-.8-1.8-1.8-1.8H5.7c-1.1 0-1.9-.8-1.9-1.8z" opacity="1" data-original="#f4f4f4" class=""></path><path fill="#682f2a" d="M40.7 33.6H27.8c-1.3 0-2.3-1.1-2.3-2.3v-.1c0-.7-.6-1.3-1.3-1.3H5.6c-1.3 0-2.3-1.1-2.3-2.3V9.1c0-1.3 1.1-2.3 2.3-2.3h38.7c1.3 0 2.3 1.1 2.3 2.3v18.4c0 1.3-1 2.3-2.3 2.3-.7 0-1.3.6-1.3 1.3v.1c0 1.4-1 2.4-2.3 2.4zM5.6 7.7c-.7 0-1.3.6-1.3 1.3v18.4c0 .7.6 1.3 1.3 1.3h18.5c1.3 0 2.3 1.1 2.3 2.3v.1c0 .7.6 1.3 1.3 1.3h12.9c.7 0 1.3-.6 1.3-1.3V31c0-1.3 1.1-2.3 2.3-2.3.7 0 1.3-.6 1.3-1.3V9.1c0-.7-.6-1.3-1.3-1.3z" opacity="1" data-original="#682f2a" class=""></path><path fill="#e5e5e5" d="M3.8 30.4V12c0-1 .8-1.8 1.8-1.8h38.7c1 0 1.8.8 1.8 1.8v18.4c0 1-.8 1.8-1.8 1.8s-1.8.8-1.8 1.8v.1c0 1-.8 1.8-1.8 1.8H27.8c-1 0-1.8-.8-1.8-1.8V34c0-1-.8-1.8-1.8-1.8H5.7c-1.1 0-1.9-.8-1.9-1.8z" opacity="1" data-original="#e5e5e5" class=""></path><path fill="#682f2a" d="M40.7 36.5H27.8c-1.3 0-2.3-1.1-2.3-2.3v-.1c0-.7-.6-1.3-1.3-1.3H5.6c-1.3 0-2.3-1.1-2.3-2.3V12c0-1.3 1.1-2.3 2.3-2.3h38.7c1.3 0 2.3 1.1 2.3 2.3v18.4c0 1.3-1 2.3-2.3 2.3-.7 0-1.3.6-1.3 1.3v.1c0 1.4-1 2.4-2.3 2.4zM5.6 10.6c-.7 0-1.3.6-1.3 1.3v18.4c0 .7.6 1.3 1.3 1.3h18.5c1.3 0 2.3 1.1 2.3 2.3v.1c0 .7.6 1.3 1.3 1.3h12.9c.7 0 1.3-.6 1.3-1.3v-.1c0-1.3 1.1-2.3 2.3-2.3.7 0 1.3-.6 1.3-1.3V12c0-.7-.6-1.3-1.3-1.3H5.6z" opacity="1" data-original="#682f2a" class=""></path><path fill="#ffd731" d="M49 19.3V44c0 1.2-.9 2.1-2.1 2.1H3.1C1.9 46.1 1 45.2 1 44V19.3c0-1.2.9-2.1 2.1-2.1 1.2 0 2.1-.9 2.1-2.1V15c0-1.2.9-2.1 2.1-2.1h14.6c1.2 0 2.1.9 2.1 2.1v.1c0 1.2.9 2.1 2.1 2.1H47c1.1 0 2 1 2 2.1z" opacity="1" data-original="#ffd731" class=""></path><path fill="#682f2a" d="M46.9 46.6H3.1C1.7 46.6.5 45.4.5 44V19.3c0-1.4 1.2-2.6 2.6-2.6.9 0 1.6-.7 1.6-1.6V15c0-1.4 1.2-2.6 2.6-2.6h14.6c1.4 0 2.6 1.2 2.6 2.6v.1c0 .9.7 1.6 1.6 1.6H47c1.4 0 2.6 1.2 2.6 2.6V44c-.1 1.5-1.3 2.6-2.7 2.6zM7.3 13.4c-.9 0-1.6.7-1.6 1.6v.1c0 1.4-1.2 2.6-2.6 2.6-.9 0-1.6.7-1.6 1.6V44c0 .9.7 1.6 1.6 1.6h43.8c.9 0 1.6-.7 1.6-1.6V19.3c0-.9-.7-1.6-1.6-1.6H26c-1.4 0-2.6-1.2-2.6-2.6V15c0-.9-.7-1.6-1.6-1.6z" opacity="1" data-original="#682f2a" class=""></path><path fill="#559aff" d="M35.5 39.5c-1.8-1.4-5.2-1.9-5.9-3.9-.6-2 1.8-3.6 1.4-5.9-.2-1.1-1.6-3.1-1.6-3.1l.9-1.4c2.3.6 4 .3 5.1-.8 1.1 1.1 2.8 1.4 5.1.8l.9 1.4s-1.4 1.9-1.6 3.1c-.3 2.3 2.1 3.9 1.4 5.9-.4 2.1-3.9 2.5-5.7 3.9z" opacity="1" data-original="#559aff"></path><path fill="#682f2a" d="M35.5 40c-.1 0-.2 0-.3-.1-.6-.5-1.5-.9-2.4-1.3-1.6-.7-3.2-1.4-3.7-2.9-.4-1.2.2-2.3.7-3.3.5-.9.9-1.7.8-2.7-.1-.8-1.1-2.3-1.5-2.8-.1-.2-.1-.4 0-.6l.9-1.4c.1-.2.3-.3.5-.2 2.1.5 3.6.3 4.7-.7.2-.2.5-.2.7 0 1 1 2.6 1.2 4.7.7.2-.1.4 0 .5.2l.9 1.4c.1.2.1.4 0 .6-.4.5-1.4 2-1.5 2.8-.1.9.3 1.8.8 2.7.5 1 1.1 2.1.7 3.3-.5 1.5-2.1 2.2-3.7 2.9-.9.4-1.8.8-2.4 1.3-.1.1-.2.1-.4.1zm-5.4-13.4c.4.6 1.4 2 1.5 3 .2 1.3-.4 2.3-.9 3.3-.5.9-.9 1.7-.6 2.6.3 1.1 1.7 1.6 3.1 2.3.8.3 1.6.7 2.3 1.2.7-.5 1.5-.8 2.3-1.2 1.4-.6 2.8-1.2 3.1-2.3.3-.8-.1-1.6-.6-2.6-.5-.9-1-2-.9-3.3.1-1 1.1-2.4 1.5-3l-.5-.8c-2 .4-3.7.2-4.9-.7-1.2.9-2.9 1.2-4.9.7z" opacity="1" data-original="#682f2a" class=""></path><path fill="#eabe06" d="M19.5 37.6H4.6c-.3 0-.5-.2-.5-.5s.2-.5.5-.5h14.9c.3 0 .5.2.5.5s-.2.5-.5.5zM19.5 40H4.6c-.3 0-.5-.2-.5-.5s.2-.5.5-.5h14.9c.3 0 .5.2.5.5s-.2.5-.5.5zM12.9 42.4H4.6c-.3 0-.5-.2-.5-.5s.2-.5.5-.5h8.2c.3 0 .5.2.5.5s-.2.5-.4.5z" opacity="1" data-original="#eabe06" class=""></path><path fill="#ffffff" d="m35.5 28.6.8 1.4 1.6.3-1.2 1.1.3 1.7-1.5-.8-1.4.8.3-1.7-1.2-1.1 1.6-.3z" opacity="1" data-original="#ffffff"></path><path fill="#682f2a" d="M37 33.6c-.1 0-.2 0-.2-.1l-1.2-.6-1.2.6c-.2.1-.4.1-.5 0s-.2-.3-.2-.5l.2-1.4-1-1c-.1-.1-.2-.3-.1-.5s.2-.3.4-.3l1.4-.2.6-1.2c.2-.3.7-.3.9 0l.6 1.2 1.4.2c.2 0 .3.2.4.3.1.2 0 .4-.1.5l-1 1 .2 1.4c0 .2 0 .4-.2.5-.2 0-.3.1-.4.1zm-2.8-3 .5.4c.1.1.2.3.1.4l-.1.6.6-.3c.1-.1.3-.1.5 0l.6.3-.1-.6c0-.2 0-.3.1-.4l.5-.4-.6-.1c-.2 0-.3-.1-.4-.3l-.3-.6-.3.6c-.1.1-.2.2-.4.3z" opacity="1" data-original="#682f2a" class=""></path><g opacity=".25"><path fill="#ffffff" d="M6.3 4.8h4.5v1H6.3zM11.9 4.8h1.5v1h-1.5z" opacity="1" data-original="#ffffff"></path></g><g opacity=".25"><path fill="#ffffff" d="M34.6 18.8h4.2v1h-4.2zM39.9 18.8h1.4v1h-1.4z" opacity="1" data-original="#ffffff"></path></g></g></svg>