<svg xmlns="http://www.w3.org/2000/svg" version="1.1" width="512"
     height="512" x="0" y="0" viewBox="0 0 512 512" style="enable-background:new 0 0 512 512" xml:space="preserve"
     class=""><g><path d="M229.261 111.877h54.606v288.235h-54.606z" style="" fill="#414042" data-original="#414042" class=""></path><path
  d="M512 406.716c0 5.929-4.851 10.779-10.778 10.779H281.701c-5.929 0-10.778-4.851-10.778-10.779V105.284c0-5.929 4.85-10.779 10.778-10.779h219.521c5.928 0 10.778 4.851 10.778 10.779v301.432z"
  style="" fill="#4d4d4d" data-original="#4d4d4d" class=""></path><path
  d="M295.23 406.716V105.284c0-5.929 4.85-10.779 10.779-10.779h-24.307c-5.929 0-10.778 4.851-10.778 10.779v301.432c0 5.929 4.85 10.779 10.778 10.779h24.307c-5.93.001-10.779-4.85-10.779-10.779z"
  style="opacity:0.1;enable-background:new ;" fill="#000000" opacity="1" data-original="#000000" class=""></path><path
  d="M0 406.716c0 5.929 4.85 10.779 10.779 10.779h219.518c5.929 0 10.779-4.85 10.779-10.779V275.464a4.119 4.119 0 0 0-4.119-4.119H4.119A4.119 4.119 0 0 0 0 275.464v131.252zM241.078 105.284c0-5.929-4.85-10.779-10.779-10.779H10.779C4.85 94.504 0 99.355 0 105.283v75.563a4.119 4.119 0 0 0 4.119 4.119h232.84a4.119 4.119 0 0 0 4.119-4.119v-75.562z"
  style="" fill="#4d4d4d" data-original="#4d4d4d" class=""></path><path d="M0 180.726h241.079v94.866H0z" style=""
                                                                        fill="#e0e0e0" data-original="#e0e0e0"
                                                                        class=""></path><path
  d="M478.818 361.97c0 6.992-5.779 12.715-12.847 12.715H316.949c-7.068 0-12.848-5.723-12.848-12.715V150.03c0-6.992 5.78-12.715 12.848-12.715h149.022c7.068 0 12.847 5.723 12.847 12.715v211.94z"
  style="" fill="#0853a4" data-original="#0853a4" class=""></path><path
  d="M304.101 248.686V361.97c0 6.992 5.78 12.715 12.848 12.715h149.022c7.068 0 12.847-5.723 12.847-12.715V248.686H304.101z"
  style="" fill="#e0e0e0" data-original="#e0e0e0" class=""></path><path
  d="M326.064 361.97V150.03c0-6.992 5.78-12.715 12.848-12.715h-21.963c-7.068 0-12.848 5.723-12.848 12.715v211.94c0 6.992 5.78 12.715 12.848 12.715h21.962c-7.067.001-12.847-5.722-12.847-12.715z"
  style="opacity:0.1;enable-background:new ;" fill="#000000" opacity="1" data-original="#000000" class=""></path><path
  d="M427.822 265.161h-72.721c-2.556 0-4.642 2.068-4.642 4.594v84.049c0 2.529 2.087 4.594 4.642 4.594h10.619v-1.045h51.482v1.045h10.619c2.554 0 4.641-2.067 4.641-4.594v-84.049c.001-2.527-2.086-4.594-4.64-4.594z"
  style="" fill="#e02424" data-original="#e02424" class=""></path><path
  d="M436.127 173.453h-89.33a7.837 7.837 0 0 1-7.837-7.837 7.837 7.837 0 0 1 7.837-7.837h89.33a7.836 7.836 0 0 1 7.837 7.837 7.837 7.837 0 0 1-7.837 7.837zM436.127 199.374h-89.33a7.837 7.837 0 0 1-7.837-7.837 7.837 7.837 0 0 1 7.837-7.837h89.33a7.837 7.837 0 0 1 0 15.674zM395.521 226.743h-48.726a7.837 7.837 0 0 1-7.837-7.837 7.837 7.837 0 0 1 7.837-7.837h48.726a7.836 7.836 0 0 1 7.837 7.837 7.836 7.836 0 0 1-7.837 7.837z"
  style="" fill="#ffffff" data-original="#ffffff" class=""></path><path
  d="M162.485 364.926H78.592a7.837 7.837 0 0 1-7.837-7.837 7.837 7.837 0 0 1 7.837-7.837h83.893a7.837 7.837 0 0 1 7.837 7.837 7.837 7.837 0 0 1-7.837 7.837zM147.428 389.662H93.649a7.837 7.837 0 0 1-7.837-7.837 7.837 7.837 0 0 1 7.837-7.837h53.778a7.837 7.837 0 0 1 7.837 7.837 7.835 7.835 0 0 1-7.836 7.837z"
  style="" fill="#e0e0e0" data-original="#e0e0e0" class=""></path><path
  d="M120.894 334.351c-.577 0-1.154-.2-1.614-.603-9.353-8.171-20.999-13.597-33.677-15.686a224.287 224.287 0 0 1-17.692-3.679c-14.76-4.161-22.396-12.371-26.203-18.524-4.678-7.562-6.17-16.179-4.093-23.641.06-.222.107-.447.136-.677.017-.134.044-.263.084-.393 8.699-28.624 6.58-62.749-5.526-89.057a2.39 2.39 0 0 1 .132-2.25c1.495-2.444 16.247-25.185 19.077-29.77a2.445 2.445 0 0 1 2.712-1.072c6.455 1.71 13.562 2.614 20.552 2.614 4.379 0 8.822-.338 13.203-1.007 12.273-1.91 23.2-6.332 31.595-12.785a2.466 2.466 0 0 1 3.019.021c8.285 6.554 19.146 11.1 31.404 13.152a88.917 88.917 0 0 0 14.302 1.17c7.439 0 14.919-1.008 21.631-2.914a2.443 2.443 0 0 1 2.802 1.141c4.123 7.293 15.968 29.463 15.968 29.463a2.39 2.39 0 0 1 .023 2.213c-13.909 27.361-16.579 59.038-7.522 89.201.039.128.065.26.083.394.028.229.073.458.136.677 2.064 7.5.553 16.145-4.147 23.724-3.822 6.158-11.477 14.366-26.245 18.48a.477.477 0 0 0-.071.021 225.752 225.752 0 0 1-14.937 3.152c-12.684 2.214-24.266 7.752-33.495 16.012a2.45 2.45 0 0 1-1.637.623z"
  style="" fill="#d8b26b" data-original="#d8b26b"></path><path
  d="M120.538 290.14c-30.254 0-54.865-24.363-54.865-54.306 0-29.946 24.613-54.306 54.865-54.306s54.864 24.361 54.864 54.306c.002 29.943-24.611 54.306-54.864 54.306z"
  style="" fill="#a07f50" data-original="#a07f50"></path><path
  d="M141.438 269.738c-.34 0-.679-.084-.983-.242l-19.916-10.356-19.916 10.356a2.127 2.127 0 0 1-2.228-.156 2.07 2.07 0 0 1-.839-2.047l3.801-21.939-16.112-15.537a2.056 2.056 0 0 1-.535-2.141 2.09 2.09 0 0 1 1.707-1.422l22.268-3.202 9.96-19.96a2.105 2.105 0 0 1 1.896-1.168c.81 0 1.537.449 1.895 1.168l9.959 19.96 22.268 3.202a2.084 2.084 0 0 1 1.707 1.422 2.054 2.054 0 0 1-.534 2.141l-16.113 15.537 3.802 21.939a2.071 2.071 0 0 1-.842 2.047 2.13 2.13 0 0 1-1.245.398z"
  style="" fill="#d8b26b" data-original="#d8b26b"></path><path
  d="M26.122 406.716V105.284c0-5.929 4.85-10.779 10.779-10.779H10.779C4.85 94.504 0 99.355 0 105.284v301.432c0 5.929 4.85 10.779 10.779 10.779h26.122c-5.928.001-10.779-4.85-10.779-10.779z"
  style="opacity:0.1;enable-background:new ;" fill="#000000" opacity="1" data-original="#000000" class=""></path><path
  d="M102.625 309.162a224.287 224.287 0 0 1-17.692-3.679c-14.761-4.161-22.396-12.371-26.203-18.524-4.678-7.562-6.17-16.179-4.093-23.641.06-.221.106-.447.136-.677.017-.134.044-.263.084-.393 8.699-28.625 6.58-62.749-5.526-89.057a2.39 2.39 0 0 1 .132-2.25c.984-1.61 7.723-12.028 13.016-20.263a76.339 76.339 0 0 1-8.249-1.68 2.442 2.442 0 0 0-2.712 1.072c-2.83 4.586-17.582 27.326-19.077 29.77a2.389 2.389 0 0 0-.132 2.25c12.106 26.308 14.224 60.433 5.526 89.057-.04.13-.067.259-.084.393-.029.23-.076.456-.136.677-2.077 7.462-.585 16.079 4.093 23.641 3.807 6.154 11.443 14.363 26.203 18.524a224.287 224.287 0 0 0 17.692 3.679c12.678 2.089 24.324 7.514 33.677 15.686a2.447 2.447 0 0 0 1.614.603c.585 0 1.172-.207 1.635-.623a65.193 65.193 0 0 1 13.367-9.221c-9.283-7.977-20.773-13.284-33.271-15.344z"
  style="opacity:0.1;enable-background:new ;" fill="#000000" opacity="1" data-original="#000000" class=""></path><path
  d="M402.181 329.989c7.871-3.895 13.283-11.946 13.283-21.252 0-13.122-10.748-23.758-24.005-23.758-13.255 0-24.001 10.637-24.001 23.758 0 9.305 5.407 17.356 13.281 21.252-8.863 4.027-15.018 12.883-15.018 23.163v5.247h51.482v-5.247c-.001-10.279-6.156-19.136-15.022-23.163z"
  style="" fill="#ffffff" data-original="#ffffff" class=""></path></g></svg>
