<svg xmlns="http://www.w3.org/2000/svg" version="1.1" width="512"
     height="512" x="0" y="0" viewBox="0 0 64 64" style="enable-background:new 0 0 512 512" xml:space="preserve"><g><rect width="42" height="56" x="8" y="6" fill="#c8cded" rx="3" opacity="1" data-original="#c8cded"></rect><rect
  width="42" height="56" x="4" y="2" fill="#e2e7f6" rx="3" opacity="1" data-original="#e2e7f6"></rect><path
  fill="#f8f7fe" d="M43 2H7v49a3 3 0 0 0 3 3h36V5a3 3 0 0 0-3-3z" opacity="1" data-original="#f8f7fe"></path><path
  fill="#446baa" d="M52 36v22a4 4 0 0 1-4 4H6a4 4 0 0 1-4-4V30a4 4 0 0 1 4-4h12l4 6h26a4 4 0 0 1 4 4z" opacity="1"
  data-original="#446baa"></path><path fill="#446baa" d="M22 32h13.999L33 28H19.333z" opacity="1"
                                       data-original="#446baa"></path><path fill="#5e87ca"
                                                                            d="M48 32H22l-4-6H6a3.974 3.974 0 0 0-.892.108A3.974 3.974 0 0 0 5 27v28a4 4 0 0 0 4 4h42a3.974 3.974 0 0 0 .892-.108A3.974 3.974 0 0 0 52 58V36a4 4 0 0 0-4-4z"
                                                                            opacity="1" data-original="#5e87ca"></path><rect
  width="28" height="16" x="13" y="39" fill="#c8cded" rx="3" opacity="1" data-original="#c8cded"></rect><path
  fill="#e2e7f6"
  d="M38 39H16a2.983 2.983 0 0 0-.86.14A2.983 2.983 0 0 0 15 40v10a3 3 0 0 0 3 3h22a2.983 2.983 0 0 0 .86-.14A2.983 2.983 0 0 0 41 52V42a3 3 0 0 0-3-3z"
  opacity="1" data-original="#e2e7f6"></path><path fill="#446baa" d="M8 6h6v4H8z" opacity="1"
                                                   data-original="#446baa"></path><path fill="#5e87ca"
                                                                                        d="M12 8h2V6h-4a2 2 0 0 0 2 2z"
                                                                                        opacity="1"
                                                                                        data-original="#5e87ca"></path><path
  fill="#446baa" d="M8 16h6v4H8z" opacity="1" data-original="#446baa"></path><path fill="#5e87ca"
                                                                                   d="M12 18h2v-2h-4a2 2 0 0 0 2 2z"
                                                                                   opacity="1"
                                                                                   data-original="#5e87ca"></path><circle
  cx="50" cy="28" r="12" fill="#c8cded" opacity="1" data-original="#c8cded"></circle><ellipse cx="51.5" cy="28"
                                                                                              fill="#e2e7f6" rx="10.5"
                                                                                              ry="11.896" opacity="1"
                                                                                              data-original="#e2e7f6"></ellipse><path
  fill="#f5b95b" d="M45 27h10v8H45z" opacity="1" data-original="#f5b95b"></path><path fill="#f9d18f"
                                                                                      d="M47 30a3 3 0 0 0 3 3h5v-6h-8z"
                                                                                      opacity="1"
                                                                                      data-original="#f9d18f"></path><path
  d="M8 11h6a1 1 0 0 0 1-1V6a1 1 0 0 0-1-1H8a1 1 0 0 0-1 1v4a1 1 0 0 0 1 1zm1-4h4v2H9zM17 5h17v2H17zM17 9h26v2H17zM8 21h6a1 1 0 0 0 1-1v-4a1 1 0 0 0-1-1H8a1 1 0 0 0-1 1v4a1 1 0 0 0 1 1zm1-4h4v2H9zM17 15h17v2H17zM17 43v9h2v-4h3v-2h-3v-2h3v-2h-4a1 1 0 0 0-1 1zM27 42h-2a1 1 0 0 0-1 1v8a1 1 0 0 0 1 1h2a3 3 0 0 0 2.234-5A3 3 0 0 0 27 42zm0 8h-1v-2h1a1 1 0 0 1 0 2zm0-4h-1v-2h1a1 1 0 0 1 0 2zM31 44h2v6h-2v2h6v-2h-2v-6h2v-2h-6z"
  fill="#000000" opacity="1" data-original="#000000"></path><path
  d="M38 38H16a4 4 0 0 0-4 4v10a4 4 0 0 0 4 4h22a4 4 0 0 0 4-4V42a4 4 0 0 0-4-4zm2 14a2 2 0 0 1-2 2H16a2 2 0 0 1-2-2V42a2 2 0 0 1 2-2h22a2 2 0 0 1 2 2z"
  fill="#000000" opacity="1" data-original="#000000"></path><path
  d="M63 28a13.008 13.008 0 0 0-12-12.949V9a4 4 0 0 0-4-4 4 4 0 0 0-4-4H7a4 4 0 0 0-4 4v21.026A4.977 4.977 0 0 0 1 30v28a5.006 5.006 0 0 0 5 5h42a5.006 5.006 0 0 0 5-5V40.637A13.014 13.014 0 0 0 63 28zM49 9v6.051a12.92 12.92 0 0 0-2 .312V7a2 2 0 0 1 2 2zM5 5a2 2 0 0 1 2-2h36a2 2 0 0 1 2 2v11a13.033 13.033 0 0 0-4.359 3H17v2h22.063a12.812 12.812 0 0 0-1.7 10H36.5l-2.7-3.6a1 1 0 0 0-.8-.4H19.868l-1.036-1.555A1 1 0 0 0 18 25H6a5 5 0 0 0-1 .1zm29 26H22.535L21.2 29h11.3zm17 27a3 3 0 0 1-3 3H6a3 3 0 0 1-3-3V30a3 3 0 0 1 3-3h11.465l3.7 5.555A1 1 0 0 0 22 33h16a13.018 13.018 0 0 0 12 8 12.7 12.7 0 0 0 1-.051zm-1-19a11 11 0 1 1 11-11 11.013 11.013 0 0 1-11 11z"
  fill="#000000" opacity="1" data-original="#000000"></path><path
  d="M55 26v-1a5 5 0 0 0-10 0v1a1 1 0 0 0-1 1v8a1 1 0 0 0 1 1h10a1 1 0 0 0 1-1v-8a1 1 0 0 0-1-1zm-8-1a3 3 0 0 1 6 0v1h-6zm7 9h-8v-6h8z"
  fill="#000000" opacity="1" data-original="#000000"></path><path d="M49 30h2v2h-2z" fill="#000000" opacity="1"
                                                                  data-original="#000000"></path></g></svg>
